<svg width="193" height="58" viewBox="0 0 193 58" fill="none" xmlns="http://www.w3.org/2000/svg">
<path d="M56.788 36.24C54.828 36.24 53.238 35.98 52.018 35.46C50.798 34.92 49.878 34.18 49.258 33.24C48.658 32.3 48.308 31.24 48.208 30.06H50.548C50.608 31.02 50.928 31.8 51.508 32.4C52.088 32.98 52.848 33.41 53.788 33.69C54.748 33.97 55.798 34.11 56.938 34.11C58.618 34.11 59.948 33.82 60.928 33.24C61.908 32.64 62.398 31.76 62.398 30.6C62.398 29.9 62.148 29.34 61.648 28.92C61.168 28.48 60.518 28.12 59.698 27.84C58.898 27.56 58.018 27.31 57.058 27.09C56.098 26.85 55.128 26.6 54.148 26.34C53.188 26.08 52.298 25.75 51.478 25.35C50.678 24.95 50.028 24.44 49.528 23.82C49.048 23.18 48.808 22.37 48.808 21.39C48.808 19.77 49.428 18.45 50.668 17.43C51.928 16.41 53.798 15.9 56.278 15.9C58.038 15.9 59.488 16.17 60.628 16.71C61.768 17.23 62.618 17.92 63.178 18.78C63.758 19.64 64.078 20.57 64.138 21.57H61.828C61.708 20.57 61.208 19.73 60.328 19.05C59.448 18.35 58.098 18 56.278 18C55.158 18 54.248 18.11 53.548 18.33C52.848 18.55 52.308 18.84 51.928 19.2C51.568 19.54 51.318 19.9 51.178 20.28C51.058 20.66 50.998 21.02 50.998 21.36C50.998 22.02 51.238 22.56 51.718 22.98C52.218 23.38 52.868 23.72 53.668 24C54.488 24.26 55.388 24.5 56.368 24.72C57.348 24.94 58.318 25.19 59.278 25.47C60.258 25.73 61.148 26.07 61.948 26.49C62.768 26.89 63.418 27.41 63.898 28.05C64.398 28.69 64.648 29.51 64.648 30.51C64.648 32.35 63.948 33.77 62.548 34.77C61.148 35.75 59.228 36.24 56.788 36.24ZM67.6551 36V21H69.9051V23.34C70.4451 22.62 71.1051 22.01 71.8851 21.51C72.6651 21.01 73.6651 20.76 74.8851 20.76C75.9251 20.76 76.8951 21.01 77.7951 21.51C78.7151 21.99 79.4551 22.72 80.0151 23.7C80.5951 24.66 80.8851 25.85 80.8851 27.27V36H78.6351V27.33C78.6351 25.97 78.2451 24.88 77.4651 24.06C76.6851 23.22 75.6751 22.8 74.4351 22.8C73.5951 22.8 72.8351 22.99 72.1551 23.37C71.4751 23.75 70.9251 24.29 70.5051 24.99C70.1051 25.67 69.9051 26.46 69.9051 27.36V36H67.6551ZM90.9773 36.24C89.5173 36.24 88.2373 35.9 87.1373 35.22C86.0573 34.52 85.2173 33.58 84.6173 32.4C84.0173 31.22 83.7173 29.92 83.7173 28.5C83.7173 27.06 84.0173 25.76 84.6173 24.6C85.2173 23.42 86.0573 22.49 87.1373 21.81C88.2373 21.11 89.5173 20.76 90.9773 20.76C92.2173 20.76 93.2773 21 94.1573 21.48C95.0573 21.96 95.7873 22.61 96.3473 23.43V21H98.5973V36H96.3473V33.6C95.7873 34.4 95.0573 35.04 94.1573 35.52C93.2773 36 92.2173 36.24 90.9773 36.24ZM91.2773 34.2C92.3973 34.2 93.3373 33.94 94.0973 33.42C94.8773 32.9 95.4673 32.21 95.8673 31.35C96.2673 30.47 96.4673 29.52 96.4673 28.5C96.4673 27.46 96.2673 26.51 95.8673 25.65C95.4673 24.79 94.8773 24.1 94.0973 23.58C93.3373 23.06 92.3973 22.8 91.2773 22.8C90.1773 22.8 89.2273 23.06 88.4273 23.58C87.6273 24.1 87.0173 24.79 86.5973 25.65C86.1773 26.51 85.9673 27.46 85.9673 28.5C85.9673 29.52 86.1773 30.47 86.5973 31.35C87.0173 32.21 87.6273 32.9 88.4273 33.42C89.2273 33.94 90.1773 34.2 91.2773 34.2ZM102.489 41.94V21H104.739V23.4C105.299 22.58 106.019 21.94 106.899 21.48C107.799 21 108.869 20.76 110.109 20.76C111.569 20.76 112.839 21.11 113.919 21.81C115.019 22.49 115.869 23.42 116.469 24.6C117.069 25.76 117.369 27.06 117.369 28.5C117.369 29.92 117.069 31.22 116.469 32.4C115.869 33.58 115.019 34.52 113.919 35.22C112.839 35.9 111.569 36.24 110.109 36.24C108.869 36.24 107.799 36 106.899 35.52C106.019 35.02 105.299 34.37 104.739 33.57V41.94H102.489ZM109.809 34.2C110.929 34.2 111.879 33.94 112.659 33.42C113.459 32.9 114.069 32.21 114.489 31.35C114.909 30.47 115.119 29.52 115.119 28.5C115.119 27.46 114.909 26.51 114.489 25.65C114.069 24.79 113.459 24.1 112.659 23.58C111.879 23.06 110.929 22.8 109.809 22.8C108.709 22.8 107.769 23.06 106.989 23.58C106.209 24.1 105.619 24.79 105.219 25.65C104.819 26.51 104.619 27.46 104.619 28.5C104.619 29.52 104.819 30.47 105.219 31.35C105.619 32.21 106.209 32.9 106.989 33.42C107.769 33.94 108.709 34.2 109.809 34.2ZM127.951 36.24C126.711 36.24 125.641 36 124.741 35.52C123.861 35.04 123.141 34.4 122.581 33.6V36H120.331V15H122.581V23.43C123.141 22.61 123.861 21.96 124.741 21.48C125.641 21 126.711 20.76 127.951 20.76C129.411 20.76 130.681 21.11 131.761 21.81C132.861 22.49 133.711 23.42 134.311 24.6C134.911 25.76 135.211 27.06 135.211 28.5C135.211 29.92 134.911 31.22 134.311 32.4C133.711 33.58 132.861 34.52 131.761 35.22C130.681 35.9 129.411 36.24 127.951 36.24ZM127.651 34.2C128.771 34.2 129.721 33.94 130.501 33.42C131.301 32.9 131.911 32.21 132.331 31.35C132.751 30.47 132.961 29.52 132.961 28.5C132.961 27.46 132.751 26.51 132.331 25.65C131.911 24.79 131.301 24.1 130.501 23.58C129.721 23.06 128.771 22.8 127.651 22.8C126.551 22.8 125.611 23.06 124.831 23.58C124.051 24.1 123.461 24.79 123.061 25.65C122.661 26.51 122.461 27.46 122.461 28.5C122.461 29.52 122.661 30.47 123.061 31.35C123.461 32.21 124.051 32.9 124.831 33.42C125.611 33.94 126.551 34.2 127.651 34.2ZM138.173 36V21H140.423V24.69C140.503 24.43 140.653 24.09 140.873 23.67C141.113 23.23 141.453 22.79 141.893 22.35C142.333 21.91 142.883 21.54 143.543 21.24C144.223 20.92 145.023 20.76 145.943 20.76H146.093V23.01H145.823C144.703 23.01 143.733 23.32 142.913 23.94C142.113 24.54 141.493 25.33 141.053 26.31C140.633 27.27 140.423 28.3 140.423 29.4V36H138.173ZM148.424 18.48V15.54H150.854V18.48H148.424ZM148.514 36V21H150.764V36H148.514ZM154.667 36V15H156.917V36H154.667ZM160.819 36V15H163.069V36H160.819ZM166.881 18.48V15.54H169.311V18.48H166.881ZM166.971 36V21H169.221V36H166.971ZM179.454 36.24C177.994 36.24 176.714 35.9 175.614 35.22C174.534 34.52 173.694 33.58 173.094 32.4C172.494 31.22 172.194 29.92 172.194 28.5C172.194 27.06 172.494 25.76 173.094 24.6C173.694 23.42 174.534 22.49 175.614 21.81C176.714 21.11 177.994 20.76 179.454 20.76C180.694 20.76 181.754 21 182.634 21.48C183.534 21.96 184.264 22.61 184.824 23.43V21H187.074V36H184.824V33.6C184.264 34.4 183.534 35.04 182.634 35.52C181.754 36 180.694 36.24 179.454 36.24ZM179.754 34.2C180.874 34.2 181.814 33.94 182.574 33.42C183.354 32.9 183.944 32.21 184.344 31.35C184.744 30.47 184.944 29.52 184.944 28.5C184.944 27.46 184.744 26.51 184.344 25.65C183.944 24.79 183.354 24.1 182.574 23.58C181.814 23.06 180.874 22.8 179.754 22.8C178.654 22.8 177.704 23.06 176.904 23.58C176.104 24.1 175.494 24.79 175.074 25.65C174.654 26.51 174.444 27.46 174.444 28.5C174.444 29.52 174.654 30.47 175.074 31.35C175.494 32.21 176.104 32.9 176.904 33.42C177.704 33.94 178.654 34.2 179.754 34.2Z" fill="url(#paint0_linear_6582_71590)"/>
<path d="M17.0303 36.3044C16.5259 35.5976 14.6454 35.7843 13.8684 35.8755C11.3724 36.1669 7.10766 37.4311 4.53833 38.0938L1.11721 38.9206C0.795943 38.958 0.18526 38.9895 0.134814 38.538C0.0644793 37.9235 1.93373 37.0171 2.41923 36.7455C4.4106 35.6329 8.75041 34.0533 10.0235 32.384C8.16583 31.458 8.09611 31.6517 6.14888 31.3318C5.78287 31.2713 5.10679 31.1825 5.11245 30.6753C5.11852 30.1316 6.06813 29.7777 6.47628 29.592L10.6958 27.6197L21.4299 22.3736C23.8297 21.3406 26.8248 20.5049 29.337 21.4947C30.6036 21.9928 31.5026 23.2151 32.0731 24.4059C32.4095 25.1043 32.5951 25.6214 32.7377 26.3903C33.6963 31.5735 27.7996 34.9602 24.0425 37.1431L21.5373 38.5437L17.628 40.6709C16.6646 41.1872 16.2647 41.6342 15.3155 40.9438C15.9483 40.0114 17.7887 37.3688 17.0303 36.3044ZM3.21117 37.5492L3.13347 37.3063L3.05124 37.4693L3.21117 37.5492ZM6.19896 36.7874C8.44945 36.1613 13.1506 34.9172 15.3531 34.9178C18.1241 34.9189 18.645 36.6602 17.5086 38.9792L17.0975 39.7939C18.3013 39.4997 20.6422 38.123 21.8132 37.4575C24.729 35.7989 29.2639 33.3048 31.1464 30.4915C32.8465 27.9523 31.7236 23.4479 28.9456 22.2703C27.02 21.4552 24.5728 22.13 22.6749 22.7915C19.9164 23.7535 15.5725 26.0675 12.8333 27.4634L6.98926 30.4602L9.27892 31.0818C10.9928 31.6299 11.1757 32.7515 9.71587 33.8624C7.96651 35.1938 4.60541 36.2627 3.2934 37.3862C4.26703 37.4013 5.25602 37.0488 6.19896 36.7874ZM23.4802 31.9089C19.4996 29.7613 21.2755 23.6041 25.6881 23.5664C26.4899 23.5609 27.2733 23.834 27.963 24.2173C30.7688 25.7801 30.7404 29.7685 28.2046 31.674C27.1163 32.4931 25.9092 32.647 24.5997 32.4681C24.1434 32.281 23.9024 32.1912 23.4802 31.9089ZM27.1757 17.0836C28.6913 13.577 32.3124 15.5757 34.2651 17.2855C37.2235 19.8752 39.83 24.5944 40.2983 28.5351C40.5762 30.869 40.2335 34.8453 36.9483 34.5853C35.1085 34.4374 33.7536 33.2057 32.381 32.1283C33.2182 30.7512 33.6348 30.3106 33.8599 28.5829C34.2291 25.7685 32.6529 22.0271 30.1692 20.6395C29.2102 20.1033 27.8162 20.0047 26.7275 19.9198C26.6976 18.9277 26.7746 18.0134 27.1757 17.0836Z" fill="url(#paint1_linear_6582_71590)"/>
<defs>
<linearGradient id="paint0_linear_6582_71590" x1="119.625" y1="11" x2="119.625" y2="42.1156" gradientUnits="userSpaceOnUse">
<stop stop-color="#CC2CC9"/>
<stop offset="1" stop-color="#7244BF"/>
</linearGradient>
<linearGradient id="paint1_linear_6582_71590" x1="19.2003" y1="48.268" x2="38.5613" y2="9.51087" gradientUnits="userSpaceOnUse">
<stop stop-color="#CC2CC9"/>
<stop offset="1" stop-color="#7244BF"/>
</linearGradient>
</defs>
</svg>
